<?xml version="1.0" standalone="no"?>
<!DOCTYPE svg PUBLIC "-//W3C//DTD SVG 20010904//EN"
 "http://www.w3.org/TR/2001/REC-SVG-20010904/DTD/svg10.dtd">
<svg version="1.0" xmlns="http://www.w3.org/2000/svg"
 width="624.000000pt" height="624.000000pt" viewBox="0 0 624.000000 624.000000"
 preserveAspectRatio="xMidYMid meet">
<metadata>
Created by potrace 1.11, written by Peter Selinger 2001-2013
</metadata>
<g transform="translate(0.000000,624.000000) scale(0.100000,-0.100000)"
fill="#000000" stroke="none">
<path d="M3100 5640 l0 -270 -22 -4 c-13 -3 -75 -7 -138 -10 -284 -14 -587
-90 -880 -221 -52 -23 -113 -48 -135 -55 -73 -23 -170 -79 -235 -138 -36 -32
-105 -89 -154 -127 -277 -214 -541 -537 -702 -859 -62 -124 -68 -132 -116
-158 -159 -87 -289 -240 -339 -398 -15 -46 -21 -93 -21 -160 -1 -147 34 -256
116 -363 20 -26 36 -49 36 -52 0 -3 -115 -5 -255 -5 l-255 0 0 -25 0 -25 954
0 c753 0 956 -3 963 -12 4 -7 17 -42 30 -76 60 -172 217 -349 370 -418 79 -35
200 -56 303 -52 50 1 90 -1 90 -5 0 -17 -596 -723 -690 -818 -102 -104 -157
-139 -217 -139 -36 0 -123 36 -184 76 -26 17 -27 17 -57 -17 -17 -19 -32 -37
-32 -41 0 -3 181 -158 402 -345 222 -186 473 -397 559 -470 l157 -132 32 40
31 39 -41 48 c-118 134 -109 224 45 427 90 120 645 785 655 785 4 0 11 -32 15
-72 15 -157 86 -310 188 -404 321 -298 861 -255 1338 107 111 84 325 298 429
429 175 220 306 452 375 663 36 110 65 251 65 314 0 75 -5 73 240 73 l220 0 0
25 0 25 -277 2 -278 3 -2 55 c-37 843 -451 1588 -1140 2049 -385 258 -812 401
-1279 428 l-114 6 0 274 0 273 -25 0 -25 0 0 -270z m-2 -582 c1 -147 -1 -228
-8 -228 -5 0 -35 17 -67 37 -83 53 -303 156 -410 191 -107 36 -235 62 -304 62
-26 0 -50 4 -53 8 -6 10 192 74 314 101 159 36 351 60 460 57 l65 -1 3 -227z
m257 222 c580 -57 1100 -299 1509 -704 359 -355 596 -788 696 -1271 26 -124
50 -328 50 -418 l0 -67 -302 2 -303 3 -8 114 c-24 372 -176 756 -414 1051 -78
96 -236 249 -333 321 -199 149 -440 264 -680 324 -84 22 -217 45 -254 45 -20
0 -52 17 -98 52 l-68 52 0 253 0 253 53 0 c28 0 97 -5 152 -10z m-600 -508
c77 -37 138 -79 130 -91 -2 -5 -30 -12 -61 -16 -75 -9 -236 -49 -325 -80 -105
-36 -103 -37 -96 45 12 139 59 182 197 177 72 -2 97 -8 155 -35z m-1193 -94
c-11 -174 80 -353 228 -449 l50 -32 -70 -74 c-39 -40 -102 -114 -141 -163 -49
-62 -77 -89 -88 -86 -19 5 -166 22 -266 31 -83 7 -267 -9 -345 -30 -30 -8 -56
-12 -58 -10 -7 7 107 216 170 309 120 179 248 328 402 467 60 55 112 99 116
99 3 0 4 -28 2 -62z m1458 -124 c47 -78 69 -148 70 -219 0 -88 -14 -124 -89
-238 l-69 -102 -83 -18 c-163 -36 -329 -113 -464 -215 -33 -25 -67 -45 -76
-45 -9 1 -94 20 -190 43 -96 23 -239 55 -318 71 -80 16 -147 32 -149 34 -8 8
74 110 164 204 l86 91 88 -7 c109 -7 200 17 274 74 57 44 112 135 122 201 7
47 2 44 125 88 135 48 334 91 429 93 45 1 46 0 80 -55z m485 26 c369 -81 722
-287 967 -565 208 -235 354 -521 422 -826 26 -119 50 -348 37 -362 -4 -4 -142
-6 -307 -5 l-299 3 -7 79 c-32 350 -206 662 -489 872 l-87 65 -6 62 c-12 102
-36 207 -67 287 -37 98 -129 238 -212 327 -37 39 -67 73 -67 77 0 9 17 7 115
-14z m-770 -815 c-59 -69 -111 -125 -117 -125 -5 0 -33 7 -61 14 -29 8 -71 20
-94 26 -24 6 -43 15 -43 19 0 13 151 108 218 138 83 37 196 73 200 62 2 -5
-44 -65 -103 -134z m1185 -165 c47 -47 107 -117 133 -157 108 -162 180 -363
194 -540 l6 -83 -299 0 -300 0 -12 72 c-16 93 -67 198 -131 269 l-50 56 47 59
c137 174 222 340 222 433 0 15 3 31 6 34 11 11 96 -55 184 -143z m-1800 -99
c0 -5 -20 -42 -45 -82 -86 -140 -151 -344 -164 -514 l-6 -80 -275 0 -274 0
-30 48 -29 47 16 123 c25 186 36 216 108 280 102 93 249 150 444 176 95 12
255 13 255 2z m305 -19 c28 -4 50 -12 50 -19 0 -14 -486 -595 -493 -589 -2 3
1 42 7 88 14 96 66 259 112 350 32 64 105 178 121 189 8 5 86 -2 203 -19z
m1045 -384 c65 -81 110 -186 110 -255 l0 -23 -215 0 c-146 0 -215 3 -215 11 0
14 258 319 270 319 5 0 28 -23 50 -52z m1554 -351 c-5 -49 -201 -328 -392
-557 -133 -158 -388 -412 -497 -493 -180 -134 -333 -187 -446 -154 -74 22
-142 81 -163 144 -16 47 -20 120 -8 160 4 12 177 225 385 472 l379 451 371 -2
c352 -3 372 -4 371 -21z m-1854 7 c0 -4 -66 -84 -146 -180 -161 -192 -168
-197 -285 -196 -159 0 -261 160 -223 351 l7 31 323 0 c178 0 324 -3 324 -6z"/>
</g>
</svg>
