<?xml version="1.0" encoding="utf-8"?>
<!-- Generator: Adobe Illustrator 19.0.1, SVG Export Plug-In . SVG Version: 6.00 Build 0)  -->
<svg version="1.1" id="Слой_1" xmlns="http://www.w3.org/2000/svg" xmlns:xlink="http://www.w3.org/1999/xlink" x="0px" y="0px"
	 viewBox="-421 431.3 156 139.7" style="enable-background:new -421 431.3 156 139.7;" xml:space="preserve">
<style type="text/css">
	.st0{fill:#fff;}
</style>
<path class="st0" d="M-265,508.4h-13.8c-0.2-17.5-7.3-33.3-18.8-44.7c-11.4-11.5-27.1-18.6-44.5-18.8v-13.6h-1.6v13.5
	c-10,0.1-19.5,2.5-27.9,6.7c-3.4,0.9-6,2.5-8.1,4.8c-3.1,2.2-6,4.6-8.7,7.3c-5.6,5.7-10.2,12.3-13.4,19.7c-2.7,1.2-4.9,2.9-6.8,5.2
	c-2.8,3.3-4,7-3.6,11.1c0.3,3.4,1.6,6.3,4,8.8H-421v1.6h47.9c1,4.1,3.3,7.6,6.8,10.6c3.3,2.7,7.7,3.8,13.2,3.1l-14.2,17
	c-3.6,4.3-6.2,6.6-7.8,6.9c-1.6,0.3-3.7-0.5-6.1-2.4l-1.8,2.2l28.2,23.7l1.8-2.2c-2.5-2.3-3.6-4.3-3.2-6.1s2.1-4.6,5.3-8.4l14.2-17
	c0.3,5.7,2.1,9.8,5.3,12.5c5.4,4.5,12.1,5.7,20.1,3.6c8.1-2.1,15.8-7.6,23.1-16.4c7.3-8.8,11.2-17.4,11.9-25.8c0-0.4,0-0.8,0.1-1.3
	h11.2V508.4z M-299,465.1c11.6,11.6,18,26.9,18.2,43.3h-15c-0.3-24.5-19.2-44.5-43.2-46.6c-1-0.8-2.1-1.6-3.1-2.4v-12.5
	C-325.8,447.1-310.5,453.5-299,465.1z M-386.9,508.4c-0.7-0.8-1.2-1.6-1.5-2.4c0.2-2.8,0.6-5.5,1.3-8.1c0.2-0.2,0.3-0.5,0.5-0.7
	c1.9-2.3,4.7-3.9,8.2-4.8c3.1-0.8,6.6-1.1,10.5-1c-3.4,4.8-5.5,10.7-5.6,17C-373.5,508.4-386.9,508.4-386.9,508.4z M-369.6,475.4
	c2.8-0.2,5-1.3,6.7-3.3c1-1.2,1.6-2.8,1.9-4.8c4.5-1.9,9.3-3.1,14.4-3.5c1,1.2,1.8,2.5,2.3,4c0.6,2,0.7,3.8,0.2,5.3
	c-0.4,1.2-1.6,3.2-3.8,6c-5.7,0.9-10.9,3.4-15.1,7c-6.5-1.6-12.1-2.9-16.8-3.7c2-2.7,4.2-5.2,6.7-7.4
	C-371.9,475.4-370.8,475.5-369.6,475.4z M-359.9,460.1c0.8-1,2.1-1.4,3.9-1.3c2.5,0.2,5,1.3,7.4,3.2c-4.3,0.5-8.4,1.6-12.3,3.1
	c0-0.1,0-0.2,0-0.3C-360.9,462.5-360.6,461-359.9,460.1z M-314.8,508.4h-14.8c-0.2-3.9-2-7.4-4.8-9.7c3.3-4.1,5.2-7,5.9-8.8
	c0.5-1.4,0.9-2.9,1-4.5C-320,490.3-315,498.8-314.8,508.4z M-350.4,482.1l-5,5.9c-1.8-0.5-3.5-0.9-5.2-1.4c3.1-2.4,6.7-4.2,10.7-5.2
	C-350,481.7-350.2,481.9-350.4,482.1z M-358.9,492.3l-12.5,14.9c0.4-5.9,2.6-11.3,6-15.7C-363.3,491.7-361.2,491.9-358.9,492.3z
	 M-342.1,508l4.3-5.1c0.8-0.9,1.5-1.8,2.2-2.6c2.3,2,3.9,4.9,4,8.1h-10.5V508z M-312.8,508.4c-0.2-10.8-6-20.1-14.6-25.4
	c-0.1-1.9-0.3-4-0.9-6.2c-1.1-4.4-3.8-8.6-8-12.7c21.6,3.2,38.3,21.8,38.6,44.2h-15.1V508.4z M-343.7,458.3
	c-3.2-2.1-6.5-3.8-10.1-5.2c-3.9-1.5-7.5-2.3-11-2.3c6.7-2.5,13.8-3.8,21.1-3.9V458.3z M-387,465.1c1.6-1.6,3.3-3.1,5.1-4.6
	c-0.3,1.2-0.3,2.6-0.1,4.1c0.4,3.1,2,5.8,4.6,8c0.7,0.6,1.5,1.1,2.3,1.6c-2.6,2.4-4.9,5-6.9,7.9c-4.4-0.7-8-1-10.7-0.8
	c-2.4,0.1-4.5,0.5-6.5,1.1C-396.2,476-392.1,470.2-387,465.1z M-355.7,518.5c-2.3-1.9-3-4.7-2.1-8.4h16.1l-7.4,8.8
	C-352,519.9-354.2,519.7-355.7,518.5z M-304.6,523.4c-12.5,14.9-21.3,20.1-26.6,15.7c-1.7-1.4-2.3-3.6-1.7-6.6L-314,510h18.8
	C-297.2,513.9-300.4,518.3-304.6,523.4z"/>
</svg>
