<?xml version="1.0" encoding="utf-8"?>
<!-- Generator: Adobe Illustrator 19.0.1, SVG Export Plug-In . SVG Version: 6.00 Build 0)  -->
<svg version="1.1" id="Слой_1" xmlns="http://www.w3.org/2000/svg" xmlns:xlink="http://www.w3.org/1999/xlink" x="0px" y="0px"
	 viewBox="0 0 164 163" style="enable-background:new 0 0 164 163;" xml:space="preserve">
<g>
	<defs>
		<path id="SVGID_1_" d="M96.7,73.1c-0.4,1.5-1.8,2.4-3.2,2.4c-0.3,0-0.6,0-0.9-0.1c-0.5-0.1-0.9-0.2-1.4-0.4
			c-1.8-0.4-2.9-2.2-2.5-4c0.4-1.8,2.2-2.9,4-2.5c0.5,0.1,1.1,0.3,1.6,0.4C96.2,69.5,97.2,71.3,96.7,73.1z M82.3,74
			c-3.5,0-6.9,0.5-10.2,1.4c-0.3,0.1-0.6,0.1-0.9,0.1c-1.5,0-2.8-1-3.2-2.4c-0.5-1.8,0.5-3.6,2.3-4.1c3.9-1.1,8-1.7,12-1.7
			c1.8,0,3.3,1.5,3.3,3.3C85.7,72.5,84.2,74,82.3,74z M126.5,73.4c-12.4-4.3-24,6.2-25.6,7.8c-3.4,4.4-4.2,8.1-4.2,8.2
			c-0.3,1.6-1.7,2.7-3.3,2.7c-0.2,0-0.4,0-0.6-0.1c-1.8-0.3-3-2.1-2.7-3.9c0.1-0.5,1.3-6.4,6.8-12.7c0.5-0.6,1.3-1.5,2.5-2.6
			c0.8-0.8,1.8-1.6,2.7-2.3c-5.9-3.7-12.8-5.6-19.9-5.6c-7.1,0-13.9,2-19.9,5.6c1,0.8,1.9,1.5,2.7,2.3c1.2,1.1,2,2,2.5,2.6
			c5.5,6.3,6.7,12.2,6.8,12.7c0.3,1.8-0.9,3.5-2.7,3.9c-0.2,0-0.4,0.1-0.6,0.1c-1.6,0-3-1.1-3.3-2.7c0-0.1-0.8-3.8-4.2-8.2
			c-1.6-1.6-13.2-12-25.6-7.8c-4,1.4-7.9,1.7-11.4,1.3C27,81,28.8,86,32.3,89.8c3.9,4.2,9.2,5.9,12.7,6.6c-0.1-2.2-0.1-3.7-0.1-3.8
			c0-1.8,1.5-3.3,3.3-3.3c0,0,0,0,0,0c1.8,0,3.3,1.5,3.3,3.3c0,0.1,0,6.8,0.7,14.2c1.2,13,3.6,16.3,4.3,17c1.8,1.8,3.6,3.2,5.3,4.6
			c5.4,4.3,10.5,8.4,10.5,20.2c0,4.8,8.1,6.5,10,6.8c1.9-0.3,10-2,10-6.8c0-11.8,5.1-15.9,10.5-20.2c1.7-1.4,3.5-2.8,5.3-4.6
			c0.7-0.7,3.1-4,4.3-17.1c0.7-7.4,0.7-14.1,0.7-14.2c0-1.8,1.5-3.3,3.3-3.3c0,0,0,0,0,0c1.8,0,3.3,1.5,3.3,3.3c0,0.1,0,1.6-0.1,3.8
			c3.4-0.7,8.7-2.3,12.7-6.6c3.4-3.7,5.3-8.8,5.5-15.1c-1,0.1-1.9,0.2-3,0.2C132.3,74.8,129.5,74.4,126.5,73.4z M155.5,45
			c-5.9,11.4-14.9,18.8-26.9,22.1c0,0,0.1,0,0.1,0c11.8,4.1,21.1-4.6,22.4-7.2c0.8-1.6,2.8-2.3,4.5-1.5c1.6,0.8,2.3,2.8,1.5,4.5
			c-1.5,2.9-6,7.5-12.4,10.1c0.1,8.9-2.4,16.1-7.4,21.4c-5.8,6.2-13.5,8.2-17.8,8.8c-0.1,1.4-0.2,2.8-0.3,4.2
			c-1,11.1-3.1,18-6.2,21.1c-2.1,2-4.1,3.7-5.8,5.1c-5,4-8,6.4-8,15c0,4.9-3.1,8.9-8.7,11.3c-3.9,1.7-7.7,2.1-8,2.1
			c-0.1,0-0.3,0-0.4,0c-0.2,0-3.9-0.5-7.6-2.1c-5.6-2.5-8.7-6.5-8.7-11.3c0-8.6-3-11-8-15c-1.8-1.4-3.8-3-5.8-5.1
			c-3.1-3.1-5.2-10-6.2-21.1c-0.1-1.5-0.2-2.9-0.3-4.2c-4.3-0.6-12-2.6-17.8-8.8c-5-5.3-7.5-12.5-7.4-21.4
			c-6.4-2.6-11-7.1-12.4-10.1c-0.8-1.6-0.2-3.6,1.5-4.5c1.6-0.8,3.6-0.2,4.5,1.5c1.3,2.6,10.5,11.3,22.4,7.2c0,0,0.1,0,0.1,0
			C24.1,63.8,15,56.4,9.2,45C3.8,34.7,1.1,21.2,0.7,3.8c0-1.8,1.4-3.4,3.3-3.4c1.8,0,3.4,1.4,3.4,3.3c0.4,16.4,2.9,28.9,7.7,38.3
			c2.8,5.4,6.2,9.6,10.5,12.8c-0.6-1-1.1-2.1-1.6-3.3c-3.6-8.5-2.2-21.3,1.2-39c0.3-1.8,2.1-3,3.9-2.6c1.8,0.3,3,2.1,2.6,3.9
			c-2.5,13-4.9,27.4-1.6,35.2c1.6,3.8,3.9,6.6,6.3,8.6c-2.5-5.2-3.4-11.1-2.1-16.9c0.4-1.8,2.2-2.9,4-2.5c1.8,0.4,2.9,2.2,2.5,4
			c-1.7,7.4,1.6,17.4,11,22.1c1.7,0.8,3.2,1.6,4.5,2.4c7.5-5.4,16.6-8.4,26-8.4c9.3,0,18.4,2.9,26,8.4c1.4-0.8,2.9-1.6,4.5-2.4
			c9.4-4.7,12.7-14.7,11-22.1c-0.4-1.8,0.7-3.6,2.5-4c1.8-0.4,3.6,0.7,4,2.5c1.3,5.7,0.4,11.7-2.1,16.9c2.4-2,4.8-4.8,6.3-8.6
			c3.3-7.7,0.9-22.2-1.6-35.2c-0.3-1.8,0.8-3.5,2.6-3.9c1.8-0.3,3.6,0.8,3.9,2.6c3.4,17.8,4.8,30.5,1.2,39c-0.5,1.2-1.1,2.3-1.6,3.3
			c4.3-3.2,7.7-7.5,10.5-12.8c4.8-9.4,7.4-21.9,7.7-38.3c0-1.8,1.6-3.3,3.4-3.3c1.8,0,3.3,1.6,3.3,3.4
			C163.6,21.2,160.8,34.7,155.5,45z"/>
	</defs>
	<use xlink:href="#SVGID_1_"  style="overflow:visible;fill:#D4AF7E;"/>
	<clipPath id="SVGID_2_">
		<use xlink:href="#SVGID_1_"  style="overflow:visible;"/>
	</clipPath>
</g>
</svg>
