<?xml version="1.0" encoding="utf-8"?>
<!-- Generator: Adobe Illustrator 19.0.1, SVG Export Plug-In . SVG Version: 6.00 Build 0)  -->
<svg version="1.1" id="Слой_1" xmlns="http://www.w3.org/2000/svg" xmlns:xlink="http://www.w3.org/1999/xlink" x="0px" y="0px"
	 viewBox="0 0 129 154" style="enable-background:new 0 0 129 154;" xml:space="preserve">
<g>
	<defs>
		<path id="SVGID_1_" d="M87.6,133.2v-5.1h5.1v5.1H87.6z M36.6,133.2v-5.1h5.1v5.1H36.6z M123.4,112.8h-23v5.1h7.7v5.1h-7.7v5.1h7.7
			v5.1h-7.7v5.1h7.7v5.1h-7.7v5.1h23V112.8z M123.4,95c0-4.2-3.4-7.6-7.7-7.6h-15.3v10.2h2.6c0.8,0,1.6,0.4,2,1l6.9,9.2h11.5V95z
			 M118.3,18.6h-5.1V66c0.1,0.3,0.2,0.7,0.2,1v5.1c0,0.7-0.1,1.3-0.2,2v8.2h5.1V18.6z M108,81c-0.8,0.5-1.8,0.8-2.7,1
			c0,0.1-0.1,0.2-0.1,0.2h2.8V81z M108,69.5h-5.1c-1.4,0-2.6-1.1-2.6-2.5V56.8c0-1.8-1-3.5-2.6-4.4v1.8c0,4.2-3.4,7.6-7.7,7.6h-2.6
			v12.7c0,2.6-0.5,5.2-1.4,7.6H98c1.4,0,2.6-1.1,2.6-2.5c0-1.4,1.1-2.5,2.6-2.5c2.3,0,4.3-1.5,4.9-3.7V69.5z M92.7,46.6h-5.1v10.2
			h2.6c1.4,0,2.6-1.1,2.6-2.5V46.6z M92.7,31.3c0-1.4-1.1-2.5-2.6-2.5H39.1c-1.4,0-2.6,1.1-2.6,2.5v10.2h56.2V31.3z M81.3,7.6
			c-0.3-1-1.3-1.7-2.4-1.7h-4.4c-0.7,0-1.3,0.3-1.8,0.7l-1.8,1.8c-0.4,0.4-0.7,0.7-1.2,1c-3.5,2.3-8.3,1.4-10.6-2.1
			c-0.5-0.8-1.3-1.3-2.3-1.3h-4.2c-1,0-1.9,0.6-2.3,1.5L43,23.7h43.6L81.3,7.6z M41.7,56.8V46.6h-5.1v7.6c0,1.4,1.1,2.5,2.6,2.5
			H41.7z M31.5,54.3v-2.5c-2.7,0.1-4.9,2.3-4.9,5.1V67c0,1.4-1.1,2.5-2.6,2.5h-5.3v2.5c0,2.8,2.3,5.1,5.1,5.1c1.4,0,2.6,1.1,2.6,2.5
			c0,1.4,1.1,2.5,2.6,2.5H43c-0.9-2.5-1.4-5-1.4-7.6V61.9h-2.6C34.9,61.9,31.5,58.5,31.5,54.3z M13.6,87.4c-4.2,0-7.7,3.4-7.7,7.6
			v53.5h23V87.4H13.6z M34,138.3h10.2v-29.5l-3.3,3.3c-0.5,0.5-1.1,0.7-1.8,0.7c-1.4,0-2.6-1.1-2.6-2.5V87.4H34V138.3z M81.5,105.2
			l-1.5-1.5l-13.5,13.5c-1,1-2.6,1-3.6,0l-13.5-13.5v24.4H80v-22.9H81.5z M82.4,89.1c-0.3,0.4-0.7,0.8-1,1.1c-0.3,0.4-0.6,0.7-1,1
			c-0.4,0.3-0.8,0.7-1.1,1c-0.4,0.3-0.7,0.6-1.1,0.9c-0.4,0.3-0.8,0.6-1.3,0.8c-0.4,0.2-0.8,0.5-1.1,0.7c-0.5,0.3-0.9,0.5-1.4,0.7
			c-0.3,0.1-0.6,0.3-0.9,0.4l-6.6,13.1c-0.2,0.5-0.6,0.9-1.1,1.1c-1.3,0.6-2.8,0.1-3.4-1.1l-6.6-13.1c-0.3-0.1-0.6-0.3-0.8-0.4
			c-0.5-0.2-1-0.5-1.5-0.7c-0.4-0.2-0.7-0.4-1.1-0.7c-0.5-0.3-0.9-0.6-1.3-0.9c-0.4-0.3-0.7-0.5-1-0.8c-0.4-0.3-0.8-0.7-1.2-1
			c-0.3-0.3-0.6-0.6-0.9-0.9c-0.4-0.4-0.7-0.8-1.1-1.2c-0.3-0.3-0.6-0.7-0.8-1.1c-0.2-0.2-0.3-0.4-0.5-0.6h-3.9v16.8l5.9-5.8
			c1-1,2.6-1,3.6,0l13.5,13.5l13.5-13.5c1-1,2.6-1,3.6,0l5.9,5.8V87.4h-3.9c-0.2,0.2-0.3,0.4-0.5,0.6C83,88.4,82.7,88.7,82.4,89.1z
			 M62.3,97.4l2.3,4.6l2.3-4.6c-0.8,0.1-1.5,0.1-2.3,0.1C63.9,97.6,63.1,97.5,62.3,97.4z M64.6,56.8h-5.1v-5.1h2.6v-5.1H57v15.3
			h15.3V46.6h-5.1v7.6C67.2,55.7,66.1,56.8,64.6,56.8z M74.9,67h-7.7v2.5c0,1.4,1.1,2.5,2.6,2.5h7.7v5.1h-7.7c-1.9,0-3.7-0.7-5.1-2
			c-1.4,1.3-3.2,2-5.1,2h-7.7v-5.1h7.7c1.4,0,2.6-1.1,2.6-2.5V67h-7.7c-1.4,0-2.6-1.1-2.6-2.5V46.6h-5.1v28c0,3.1,0.8,6.2,2.4,8.9
			c2.2,3.8,5.6,6.6,9.8,8l0.3-0.2l0.2,0.3c3.4,1.1,7,1.1,10.4,0l0.2-0.3l0.3,0.2c4.1-1.4,7.6-4.2,9.7-7.9c1.6-2.7,2.4-5.8,2.4-8.9
			v-28h-5.1v17.8C77.4,65.9,76.3,67,74.9,67z M92,112.1c-1,1-2.6,1-3.6,0l-3.3-3.3v29.5h10.2v-38.2V87.4h-2.6v22.9
			C92.7,111,92.5,111.6,92,112.1z M34,148.5h61.3v-5.1H82.5c-1.4,0-2.6-1.1-2.6-2.5v-7.6H49.3v7.6c0,1.4-1.1,2.5-2.6,2.5H34V148.5z
			 M100.4,107.7h5.1l-3.8-5.1h-1.3V107.7z M125.9,153.6H3.4c-1.4,0-2.6-1.1-2.6-2.5V95c0-7,5.7-12.7,12.8-12.7h8.1
			c0-0.1-0.1-0.2-0.1-0.2c-4.7-1-8-5.2-8-9.9V67c0-1.4,1.1-2.5,2.6-2.5h5.3v-7.6c0-5.5,4.5-10.1,10-10.2V31.3c0-3.5,2.4-6.6,5.9-7.4
			l8.3-18.6c1.2-2.8,4-4.5,7-4.5h4.2c2.6,0,5,1.3,6.4,3.4c0.4,0.7,1.2,1.2,2,1.3c0.8,0.1,1.5-0.2,2.1-0.7L69,3
			c1.4-1.4,3.4-2.2,5.4-2.2h4.4c3.3,0,6.2,2.1,7.3,5.2l6,18c3.4,0.9,5.7,3.9,5.7,7.4V47c4.5,1.2,7.6,5.2,7.7,9.8v7.6h2.6V26.2h-5.1
			v-5.1h5.1v-5.1c0-1.4,1.1-2.5,2.6-2.5h10.2c1.4,0,2.6,1.1,2.6,2.5v68.8c0,0,0,0,0,0.1c3.2,2.4,5.1,6.1,5.1,10.1v56
			C128.5,152.4,127.3,153.6,125.9,153.6z"/>
	</defs>
	<use xlink:href="#SVGID_1_"  style="overflow:visible;fill:#D4AF7E;"/>
	<clipPath id="SVGID_2_">
		<use xlink:href="#SVGID_1_"  style="overflow:visible;"/>
	</clipPath>
</g>
</svg>
