<?xml version="1.0" encoding="utf-8"?>
<!-- Generator: Adobe Illustrator 19.0.1, SVG Export Plug-In . SVG Version: 6.00 Build 0)  -->
<svg version="1.1" id="Слой_1" xmlns="http://www.w3.org/2000/svg" xmlns:xlink="http://www.w3.org/1999/xlink" x="0px" y="0px"
	 viewBox="0 0 154 163" style="enable-background:new 0 0 154 163;" xml:space="preserve">
<g>
	<defs>
		<path id="SVGID_1_" d="M82.9,132.8c-1.3,0-2.3-1-2.3-2.3v-4.8c0-1.3,1-2.3,2.3-2.3s2.3,1,2.3,2.3v4.8
			C85.3,131.8,84.2,132.8,82.9,132.8z M91.7,53H79v4.8h17.5L91.7,53z M79,40.2v8h7.9L79,40.2z M74.2,53H61.5l-4.8,4.8h17.5V53z
			 M74.2,40.2l-7.9,8h7.9V40.2z M103.6,60.7c-0.5,1.1-1.5,1.8-2.7,1.8H52.4c-1.2,0-2.3-0.7-2.7-1.8c-0.5-1.1-0.2-2.4,0.6-3.2
			c0,0,24.2-24.4,24.2-24.4c0.6-0.6,1.3-0.9,2.1-0.9c0.8,0,1.5,0.3,2.1,0.9L103,57.5C103.8,58.4,104.1,59.6,103.6,60.7z M47.8,108.1
			H36.1v15.2h11.7V108.1z M49.1,128.1H34.9c-1.9,0-3.5-1.6-3.5-3.5v-17.8c0-1.9,1.6-3.5,3.5-3.5h14.3c1.9,0,3.5,1.6,3.5,3.5v17.8
			C52.6,126.6,51,128.1,49.1,128.1z M117.1,108.1h-11.7v15.2h11.7V108.1z M118.4,128.1h-14.3c-1.9,0-3.5-1.6-3.5-3.5v-17.8
			c0-1.9,1.6-3.5,3.5-3.5h14.3c1.9,0,3.5,1.6,3.5,3.5v17.8C121.9,126.6,120.3,128.1,118.4,128.1z M133.8,143.6
			c-0.2,0-0.4-0.1-0.6-0.1c-0.1,0-0.2,0-0.2,0c-0.1,0-0.3,0-0.4,0c-0.1,0-0.3,0-0.4,0c-0.1,0-0.1,0-0.2,0c-0.2,0-0.4,0-0.6,0
			c-0.9,0.1-1.7-0.3-2.2-1c-2.3-3.2-5.9-5-9.8-5c-5.2,0-9.8,3.3-11.4,8.2c-0.2,0.7-0.8,1.3-1.6,1.5c-0.2,0.1-0.4,0.1-0.6,0.2
			c-0.1,0-0.1,0-0.2,0.1c-0.1,0.1-0.2,0.1-0.4,0.2c-0.1,0-0.1,0.1-0.2,0.1c-0.1,0.1-0.2,0.1-0.3,0.2c0,0-0.1,0.1-0.1,0.1
			c-0.2,0.1-0.3,0.2-0.4,0.3c0,0,0,0,0,0c-0.1,0.1-0.3,0.2-0.4,0.3c0,0-0.1,0.1-0.1,0.1c-0.1,0.1-0.2,0.2-0.3,0.2
			c0,0-0.1,0.1-0.1,0.1c-0.1,0.1-0.2,0.2-0.2,0.3c0,0-0.1,0.1-0.1,0.1c-0.1,0.1-0.2,0.3-0.3,0.4c0,0,0,0,0,0h38.7
			C140.1,146.1,137,144,133.8,143.6C133.9,143.6,133.9,143.6,133.8,143.6z M6.5,154.7c-1,0-1.8,0.8-1.8,1.8c0,1,0.8,1.8,1.8,1.8
			h140.2c1,0,1.8-0.8,1.8-1.8c0-1-0.8-1.8-1.8-1.8H6.5z M88.9,103.9c0-0.7-0.5-1.2-1.2-1.2H65.5c-0.7,0-1.2,0.5-1.2,1.2h0v46.1h24.6
			V103.9z M50.6,149.9c-0.1-0.1-0.2-0.3-0.3-0.4c0,0-0.1-0.1-0.1-0.1c-0.1-0.1-0.2-0.2-0.2-0.3c0,0-0.1-0.1-0.1-0.1
			c-0.1-0.1-0.2-0.2-0.3-0.2c0,0-0.1-0.1-0.1-0.1c-0.1-0.1-0.2-0.2-0.4-0.3c0,0,0,0,0,0c-0.1-0.1-0.3-0.2-0.4-0.3
			c0,0-0.1-0.1-0.1-0.1c-0.1-0.1-0.2-0.1-0.3-0.2c-0.1,0-0.1-0.1-0.2-0.1c-0.1-0.1-0.2-0.1-0.4-0.2c-0.1,0-0.1,0-0.2-0.1
			c-0.2-0.1-0.4-0.1-0.6-0.2c-0.6-0.2-1-0.5-1.3-1c-0.1-0.2-0.2-0.3-0.2-0.5c-1.6-4.9-6.2-8.2-11.4-8.2c-3.9,0-7.6,1.9-9.8,5
			c-0.5,0.7-1.4,1.1-2.2,1c-0.2,0-0.4,0-0.6-0.1c-0.1,0-0.1,0-0.2,0c-0.1,0-0.3,0-0.4,0c-0.1,0-0.3,0-0.4,0c-0.1,0-0.2,0-0.2,0
			c-0.2,0-0.4,0-0.6,0.1h0c-3.1,0.5-6.3,2.5-7.5,6.4L50.6,149.9C50.6,149.9,50.6,149.9,50.6,149.9z M20.5,24.1h20.9v-3.3H20.5V24.1z
			 M24.3,50.1l13.3-13.4v-7.8H24.3V50.1z M145.4,84.5C145.4,84.5,145.4,84.5,145.4,84.5c-2,0-3.9-0.8-5.2-2.2l-3.5-3.5v60.6
			c4.8,1.5,8.5,5.4,9.7,10.6h0.4c3.6,0,6.5,2.9,6.5,6.5c0,3.6-2.9,6.5-6.5,6.5H6.5c-3.6,0-6.5-2.9-6.5-6.5c0-3.6,2.9-6.5,6.5-6.5
			h0.4c1.2-5.2,4.9-9.2,9.7-10.6v-16.1c0-1.3,1.1-2.4,2.4-2.4c1.3,0,2.4,1.1,2.4,2.4v15.1c0,0,0.1-0.1,0.1-0.1
			c0.1-0.1,0.2-0.2,0.3-0.3c0.1-0.1,0.2-0.2,0.3-0.3c0.1-0.1,0.2-0.2,0.3-0.3c0.1-0.1,0.2-0.2,0.3-0.3c0.1-0.1,0.2-0.2,0.3-0.3
			c0.1-0.1,0.2-0.2,0.4-0.3c0.1-0.1,0.2-0.2,0.3-0.3c0.1-0.1,0.2-0.2,0.4-0.3c0.1-0.1,0.2-0.2,0.4-0.2c0.1-0.1,0.3-0.2,0.4-0.2
			c0.1-0.1,0.2-0.2,0.4-0.2c0.1-0.1,0.3-0.2,0.4-0.2c0.1-0.1,0.3-0.1,0.4-0.2c0.1-0.1,0.3-0.1,0.4-0.2c0.1-0.1,0.3-0.1,0.4-0.2
			c0.1-0.1,0.3-0.1,0.4-0.2c0.1-0.1,0.3-0.1,0.4-0.2c0.1-0.1,0.3-0.1,0.4-0.2c0.1,0,0.3-0.1,0.4-0.1c0.2-0.1,0.3-0.1,0.5-0.1
			c0.1,0,0.3-0.1,0.4-0.1c0.2,0,0.3-0.1,0.5-0.1c0.1,0,0.3-0.1,0.4-0.1c0.2,0,0.3-0.1,0.5-0.1c0.1,0,0.3-0.1,0.4-0.1
			c0.2,0,0.4-0.1,0.5-0.1c0.1,0,0.2,0,0.4,0c0.2,0,0.4,0,0.6,0c0.1,0,0.2,0,0.3,0c0.3,0,0.6,0,0.9,0c6.8,0,12.9,4.1,15.5,10.3
			c0.2,0.1,0.4,0.2,0.7,0.3c0.1,0,0.1,0.1,0.2,0.1c0.1,0.1,0.3,0.1,0.4,0.2c0.1,0,0.2,0.1,0.2,0.1c0.1,0.1,0.3,0.1,0.4,0.2
			c0.1,0,0.1,0.1,0.2,0.1c0.1,0.1,0.3,0.2,0.4,0.3c0.1,0,0.1,0.1,0.2,0.1c0.2,0.1,0.4,0.3,0.5,0.4c0,0,0.1,0,0.1,0.1
			c0.1,0.1,0.3,0.2,0.4,0.4c0.1,0.1,0.1,0.1,0.2,0.2c0.1,0.1,0.2,0.2,0.3,0.3c0.1,0.1,0.1,0.1,0.2,0.2c0.1,0.1,0.2,0.2,0.3,0.3
			c0.1,0.1,0.1,0.1,0.2,0.2c0.1,0.1,0.2,0.3,0.3,0.4c0,0.1,0.1,0.1,0.1,0.2c0.1,0.2,0.2,0.4,0.3,0.6c0,0,0,0.1,0.1,0.1
			c0.1,0.1,0.2,0.3,0.2,0.5c0,0.1,0.1,0.1,0.1,0.2c0.1,0.1,0.1,0.3,0.2,0.4c0,0.1,0.1,0.2,0.1,0.2c0.1,0.1,0.1,0.3,0.1,0.4
			c0,0.1,0.1,0.2,0.1,0.2c0,0,0,0.1,0,0.1h3.8v-46.1c0-3.3,2.7-6,6-6h22.2c3.3,0,6,2.7,6,6v46.1h3.8c0,0,0-0.1,0-0.1
			c0-0.1,0-0.1,0.1-0.2c0-0.1,0.1-0.3,0.2-0.4c0-0.1,0.1-0.2,0.1-0.2c0.1-0.1,0.1-0.3,0.2-0.4c0-0.1,0.1-0.1,0.1-0.2
			c0.1-0.2,0.2-0.3,0.2-0.5c0,0,0-0.1,0.1-0.1c0.1-0.2,0.2-0.4,0.3-0.6c0,0,0.1-0.1,0.1-0.1c0.1-0.1,0.2-0.3,0.3-0.4
			c0-0.1,0.1-0.1,0.1-0.2c0.1-0.1,0.2-0.2,0.3-0.3c0.1-0.1,0.1-0.1,0.2-0.2c0.1-0.1,0.2-0.2,0.3-0.3c0.1,0,0.1-0.1,0.1-0.2
			c0.1-0.1,0.3-0.3,0.4-0.4c0,0,0,0,0.1,0c0.2-0.1,0.3-0.3,0.5-0.4c0,0,0.1-0.1,0.2-0.1c0.1-0.1,0.3-0.2,0.4-0.3
			c0.1,0,0.1-0.1,0.2-0.1c0.1-0.1,0.3-0.2,0.4-0.2c0.1,0,0.1-0.1,0.2-0.1c0.1-0.1,0.3-0.2,0.4-0.2c0.1,0,0.1-0.1,0.2-0.1
			c0.2-0.1,0.4-0.2,0.7-0.3c2-4.9,6.2-8.4,11.2-9.8c1.4-0.4,2.9-0.6,4.4-0.6c0.3,0,0.6,0,0.9,0c0.1,0,0.2,0,0.3,0c0.2,0,0.4,0,0.6,0
			c0.1,0,0.2,0,0.4,0c0.2,0,0.4,0,0.5,0.1c0.1,0,0.3,0,0.4,0.1c0.2,0,0.3,0.1,0.5,0.1c0.1,0,0.3,0.1,0.4,0.1c0.2,0,0.3,0.1,0.5,0.1
			c0.1,0,0.3,0.1,0.4,0.1c0.2,0,0.3,0.1,0.5,0.1c0.1,0,0.3,0.1,0.4,0.1c0.1,0.1,0.3,0.1,0.4,0.2c0.1,0.1,0.3,0.1,0.4,0.2
			c0.1,0.1,0.3,0.1,0.4,0.2c0.1,0.1,0.3,0.1,0.4,0.2c0.1,0.1,0.3,0.1,0.4,0.2c0.1,0.1,0.2,0.1,0.4,0.2c0.1,0.1,0.3,0.2,0.4,0.2
			c0.1,0.1,0.2,0.1,0.4,0.2c0.1,0.1,0.3,0.2,0.4,0.3c0.1,0.1,0.2,0.2,0.4,0.2c0.1,0.1,0.3,0.2,0.4,0.3c0.1,0.1,0.2,0.2,0.3,0.3
			c0.1,0.1,0.2,0.2,0.4,0.3c0.1,0.1,0.2,0.2,0.3,0.3c0.1,0.1,0.2,0.2,0.4,0.3c0.1,0.1,0.2,0.2,0.3,0.3c0.1,0.1,0.2,0.2,0.3,0.3
			c0.1,0.1,0.2,0.2,0.3,0.3c0,0,0.1,0.1,0.1,0.1V73.9L77,18.7c-0.1-0.1-0.3-0.1-0.4-0.1c-0.1,0-0.2,0-0.4,0.1L21.4,73.9v34.4
			c0,1.3-1.1,2.4-2.4,2.4c-1.3,0-2.4-1.1-2.4-2.4V78.8l-3.5,3.5c-1.4,1.4-3.2,2.2-5.2,2.2c0,0,0,0,0,0c-2,0-3.8-0.8-5.2-2.1
			c-2.9-2.9-2.9-7.5,0-10.4l16.9-17v-26h-0.6c-1.8,0-3.2-1.4-3.2-3.2v-6.5c0-1.8,1.4-3.2,3.2-3.2H43c1.8,0,3.2,1.4,3.2,3.2v6.5
			c0,1.8-1.4,3.2-3.2,3.2h-0.6v3l29.9-30C73.4,0.6,75,0,76.6,0c1.7,0,3.2,0.6,4.4,1.8l42.7,42.9c0.9,0.9,0.9,2.4,0,3.4
			c-0.9,0.9-2.5,0.9-3.4,0L77.6,5.2c-0.3-0.3-0.6-0.4-1-0.4c-0.4,0-0.7,0.1-1,0.4L6,75.3c-1,1-1,2.7,0,3.7c0.5,0.5,1.1,0.8,1.8,0.8
			c0,0,0,0,0,0c0.7,0,1.3-0.3,1.8-0.8l63.2-63.6c0.9-0.9,2-1.4,3.2-1.5c0.2,0,0.3,0,0.5,0c0.3,0,0.5,0,0.8,0.1
			c1.1,0.2,2.2,0.7,3,1.5l63.2,63.6c0.5,0.5,1.1,0.8,1.8,0.8c0,0,0,0,0,0c0.7,0,1.3-0.3,1.8-0.8c1-1,1-2.7,0-3.7l-16.5-16.6
			c-0.9-0.9-0.9-2.4,0-3.4c0.9-0.9,2.5-0.9,3.4,0l16.5,16.6c2.9,2.9,2.9,7.6,0,10.4C149.2,83.7,147.4,84.5,145.4,84.5z"/>
	</defs>
	<use xlink:href="#SVGID_1_"  style="overflow:visible;fill:#D4AF7E;"/>
	<clipPath id="SVGID_2_">
		<use xlink:href="#SVGID_1_"  style="overflow:visible;"/>
	</clipPath>
</g>
</svg>
